<?xml version="1.0" encoding="utf-8"?>
<!-- Generator: Adobe Illustrator 24.0.2, SVG Export Plug-In . SVG Version: 6.00 Build 0)  -->
<svg version="1.1" id="Capa_1" xmlns="http://www.w3.org/2000/svg" xmlns:xlink="http://www.w3.org/1999/xlink" x="0px" y="0px"
	 viewBox="0 0 1470.2 395" style="enable-background:new 0 0 1470.2 395;" xml:space="preserve">
<style type="text/css">
	.st0{fill:#595751;}
	.st1{fill:#B5B1A4;}
	.st2{fill:#8F8B81;}
	.st3{fill:#706C64;}
	.st4{fill:#FFAF40;}
	.st5{fill:#FF993A;}
	.st6{fill:#5CCEFF;}
	.st7{fill:#27B2FF;}
	.st8{fill:#FFC751;}
	.st9{fill:#F97C15;}
	.st10{fill:#E8E4D8;}
	.st11{fill:#F1EEE0;}
	.st12{fill:#F9F8F2;}
	.st13{fill:#D8D4C9;}
</style>
<g>
	<g>
		<g>
			<path class="st0" d="M262.8,350.4c-9.1-18.3-38-31.7-72.3-31.7c-34.2,0-63.1,13.4-72.3,31.7H262.8z"/>
			<g>
				<g>
					<path class="st1" d="M136,298.8h-27.2c-4.2,0-8.1,2-10.5,5.4l-33.8,46.7h29.5l20.4-28.1H136c3.8,0,6.8-3.1,6.8-6.8v-10.3
						C142.8,301.9,139.7,298.8,136,298.8L136,298.8z"/>
				</g>
				<g>
					<path class="st2" d="M111.7,326.4l-17.7,24.5H64.4l8.9-12.3C87.5,338.3,100.7,333.9,111.7,326.4L111.7,326.4z"/>
				</g>
				<g>
					<path class="st1" d="M247.7,298.8h27.2c4.2,0,8.1,2,10.5,5.4l33.8,46.7h-29.5l-20.4-28.1h-21.6c-3.8,0-6.8-3.1-6.8-6.8v-10.3
						C240.9,301.9,243.9,298.8,247.7,298.8L247.7,298.8z"/>
				</g>
				<g>
					<path class="st2" d="M319.3,350.8h-29.5l-0.9-1.3c2.2-6,3.3-12.4,3.3-19.1c0-9.1-2.2-17.7-6-25.3"/>
				</g>
			</g>
			<path class="st3" d="M326.1,368.7H55c-3.8,0-6.8-3.1-6.8-6.8v-8.1c0-3.8,3.1-6.8,6.8-6.8h271.1c3.8,0,6.8,3.1,6.8,6.8v8.1
				C333,365.6,329.9,368.7,326.1,368.7z"/>
			<path class="st2" d="M199,346.9H95c-6,0-10.9,4.9-10.9,10.9c0,6,4.9,10.9,10.9,10.9H199c6,0,10.9-4.9,10.9-10.9
				C209.9,351.8,205,346.9,199,346.9z"/>
			<path class="st1" d="M148.5,346.9h-18.4c-6,0-10.9,4.9-10.9,10.9c0,6,4.9,10.9,10.9,10.9h18.4c6,0,10.9-4.9,10.9-10.9
				C159.4,351.8,154.5,346.9,148.5,346.9z"/>
			<path class="st2" d="M286.1,305.1l33.2,45.8"/>
			<g>
				<g>
					<path class="st4" d="M201.8,314.1c0,7-4.2,13.1-10.3,15.7c-6.1-2.7-10.3-8.7-10.3-15.7s4.2-13.1,10.3-15.7
						C197.6,301,201.8,307,201.8,314.1L201.8,314.1z"/>
					<path class="st5" d="M201.8,314.1c0,7-4.2,13.1-10.3,15.7c-1.1-0.5-2.1-1.1-3-1.7c5.2-4.6,8.5-11.4,8.5-18.9
						c0-2.9-0.5-5.8-1.4-8.4C199.4,303.9,201.8,308.7,201.8,314.1L201.8,314.1z"/>
					<path class="st6" d="M198.3,319.5c0,4.6-2.8,8.6-6.7,10.3c-4-1.7-6.7-5.7-6.7-10.3c0-4.6,2.8-8.6,6.7-10.3
						C195.5,310.9,198.3,314.9,198.3,319.5z"/>
				</g>
				<path class="st7" d="M198.3,319.5c0,4.6-2.8,8.6-6.7,10.3c-1.6-0.7-3-1.8-4.2-3.2c3.9-2.8,6.5-7.4,6.5-12.6
					c0-1.3-0.2-2.6-0.5-3.9C196.4,312.2,198.3,315.6,198.3,319.5z"/>
			</g>
			<g>
				<g>
					<g>
						<path class="st4" d="M231.9,320.5c-2.5,6.6-8.6,10.7-15.2,11c-4.7-4.6-6.5-11.8-4-18.4c2.5-6.6,8.6-10.7,15.2-11
							C232.6,306.7,234.4,313.9,231.9,320.5z"/>
						<path class="st5" d="M231.9,320.5c-2.5,6.6-8.6,10.7-15.2,11c-0.8-0.8-1.6-1.7-2.2-2.7c6.5-2.5,12-7.6,14.7-14.7
							c1-2.7,1.6-5.6,1.7-8.3C233.2,310.1,233.8,315.5,231.9,320.5L231.9,320.5z"/>
						<path class="st6" d="M226.6,324.3c-1.6,4.3-5.7,7-10,7.2c-3.1-3-4.3-7.7-2.6-12.1c1.6-4.3,5.7-7,10-7.2
							C227.1,315.3,228.3,320,226.6,324.3z"/>
					</g>
					<path class="st7" d="M226.6,324.3c-1.6,4.3-5.6,7-10,7.2c-1.3-1.2-2.2-2.8-2.8-4.4c4.7-1.2,8.7-4.6,10.6-9.4
						c0.5-1.2,0.8-2.5,0.9-3.8C227.4,316.8,228,320.7,226.6,324.3L226.6,324.3z"/>
				</g>
				<g>
					<g>
						<path class="st4" d="M171,313.1c2.5,6.6,0.7,13.7-4,18.4c-6.6-0.3-12.7-4.5-15.2-11c-2.5-6.6-0.7-13.7,4-18.4
							C162.4,302.4,168.5,306.5,171,313.1z"/>
						<path class="st5" d="M171,313.1c2.5,6.6,0.7,13.7-4,18.4c-1.2-0.1-2.3-0.2-3.4-0.5c3.2-6.2,3.8-13.7,1.1-20.7
							c-1-2.7-2.5-5.2-4.3-7.3C165.1,304.5,169.1,308.1,171,313.1L171,313.1z"/>
						<path class="st6" d="M169.6,319.5c1.6,4.3,0.5,9-2.6,12.1c-4.3-0.2-8.3-2.9-10-7.2c-1.6-4.3-0.5-9,2.6-12.1
							C164,312.4,168,315.1,169.6,319.5L169.6,319.5z"/>
					</g>
					<path class="st7" d="M169.6,319.5c1.6,4.3,0.5,9-2.6,12c-1.8-0.1-3.5-0.6-5-1.5c2.7-4,3.4-9.2,1.6-14.1
						c-0.5-1.2-1.1-2.4-1.8-3.4C165.2,313.4,168.3,315.9,169.6,319.5z"/>
				</g>
			</g>
			<g>
				<g>
					<g>
						<path class="st4" d="M254.3,338.4c-5.3,4.6-12.6,5.4-18.6,2.6c-2-6.3-0.2-13.5,5.1-18.1c5.3-4.6,12.6-5.4,18.6-2.6
							C261.4,326.6,259.6,333.8,254.3,338.4z"/>
						<path class="st5" d="M254.3,338.4c-5.3,4.6-12.6,5.4-18.6,2.6c-0.4-1.1-0.6-2.3-0.7-3.4c6.9,0.8,14.2-1.2,19.8-6.1
							c2.2-1.9,4-4.2,5.4-6.6C260.3,329.9,258.3,334.9,254.3,338.4z"/>
						<path class="st6" d="M247.9,339.4c-3.5,3-8.3,3.6-12.2,1.7c-1.3-4.1-0.1-8.8,3.3-11.9c3.5-3,8.3-3.6,12.2-1.7
							C252.5,331.6,251.4,336.3,247.9,339.4L247.9,339.4z"/>
					</g>
					<path class="st7" d="M247.9,339.4c-3.5,3-8.3,3.6-12.2,1.7c-0.5-1.7-0.7-3.5-0.4-5.2c4.7,1.1,9.8,0,13.8-3.4
						c1-0.9,1.9-1.9,2.6-2.9C252.1,333.1,250.8,336.8,247.9,339.4L247.9,339.4z"/>
				</g>
				<g>
					<g>
						<path class="st4" d="M142.9,323c5.3,4.6,7.1,11.8,5.1,18.1c-6,2.8-13.3,2-18.6-2.6c-5.3-4.6-7.1-11.8-5.1-18.1
							C130.3,317.5,137.6,318.3,142.9,323z"/>
						<path class="st5" d="M142.9,323c5.3,4.6,7.1,11.8,5.1,18.1c-1.1,0.5-2.2,0.9-3.3,1.1c-0.1-7-3-13.9-8.7-18.8
							c-2.2-1.9-4.7-3.4-7.2-4.5C133.7,318.1,138.9,319.4,142.9,323L142.9,323z"/>
						<path class="st6" d="M144.7,329.2c3.5,3,4.6,7.7,3.3,11.9c-3.9,1.8-8.7,1.3-12.2-1.7c-3.5-3-4.6-7.7-3.3-11.9
							C136.4,325.6,141.2,326.2,144.7,329.2z"/>
					</g>
					<path class="st7" d="M144.7,329.2c3.5,3,4.6,7.7,3.3,11.9c-1.6,0.7-3.4,1.1-5.1,1c0.5-4.8-1.3-9.8-5.2-13.2
						c-1-0.9-2.1-1.6-3.2-2.2C137.9,325.9,141.8,326.7,144.7,329.2L144.7,329.2z"/>
				</g>
			</g>
			<path class="st0" d="M333,353.8v8.1c0,3.8-3.1,6.8-6.8,6.8h-59.2c14.7-2.9,27.7-10.7,37-21.7h22.2C329.9,346.9,333,350,333,353.8
				z"/>
		</g>
	</g>
	<g>
		<path class="st4" d="M195.2,183.4c0,0-46.1,12.4-67.2-17.3s7.9-79-8.7-94.3C94.9,49.2-38.3,184,90.4,256L195.2,183.4z"/>
		<path class="st8" d="M58,154.6c4.4-15.9,12.5-30.8,22-43.5c2.7-3.6,2.1-8.8-1.3-11.7l-0.1-0.1c-3.6-3.2-9.2-2.8-12.3,0.9
			c-11.6,13.6-21.8,30.7-27.2,49.1c-1.8,6.3,2.9,12.5,9.4,12.5C53,161.7,56.9,158.8,58,154.6z"/>
		<path class="st5" d="M195.2,183.4L90.4,256c-10.8-6.1-19.8-12.6-27.2-19.4c25.4-25.6,41-60.7,41-99.6c0-21.3-4.7-41.4-13.1-59.5
			c12-8,22.7-10.7,28.1-5.7c16.5,15.3-12.5,64.6,8.7,94.3C149.1,195.8,195.2,183.4,195.2,183.4z"/>
		<path class="st9" d="M195.2,183.4l-88.8,61.5c15.6-20.7,24.9-46.4,24.9-74.3v-0.3C153.6,194.6,195.2,183.4,195.2,183.4z"/>
		<g>
			<g>
				<path class="st1" d="M303.4,176.7L277,162.3l33.3-60.8l19.2,10.5c3.9,2.2,5.4,7.1,3.2,11L303.4,176.7z"/>
				<path class="st2" d="M332.8,123l-29.4,53.7l-11.3-6.2c17.1-10.7,25.7-31.8,19.8-52.1c-1.1-3.9-2.8-7.6-4.8-11l3.3-6l19.2,10.6
					C333.6,114.2,335,119.1,332.8,123L332.8,123z"/>
				<path class="st0" d="M352.6,24.6c4.4-7.5,14.1-10.1,21.7-5.5c7,4.2,9.6,13.1,6.1,20.4c-1.2,2.5-3,4.6-5.1,6.1
					c-8.7,6.1-27.2,35.1-31.5,44.9l-8,18.1c-1.9,4.3-7.1,6-11.2,3.8l-15.5-8.5L352.6,24.6L352.6,24.6z"/>
				<path class="st3" d="M322.7,99.1c4.7,2.6,10.5,0.9,13.1-3.8l20.7-37.7c2.6-4.7,0.9-10.5-3.8-13.1c-4.7-2.6-10.5-0.9-13.1,3.8
					L318.9,86C316.3,90.7,318,96.6,322.7,99.1z"/>
			</g>
			<path class="st10" d="M34.6,224c-4.8,1.4-6.1,7.5-2.4,10.8c45.2,39.4,109.6,55.6,172.3,37.3S312.9,205.6,329.8,148
				c1.4-4.8-3-9.2-7.8-7.8L34.6,224z"/>
			<path class="st11" d="M157.4,188.2l-99.7,29.1c-5.1,1.5-8.1,6.9-6.6,12c1.5,5.1,6.9,8.1,12,6.6l99.7-29.1c5.1-1.5,8.1-6.9,6.6-12
				C167.9,189.7,162.6,186.7,157.4,188.2z"/>
			<path class="st12" d="M139.9,193.3l-29.5,8.6c-5.1,1.5-8.1,6.9-6.6,12c1.5,5.1,6.9,8.1,12,6.6l29.5-8.6c5.1-1.5,8.1-6.9,6.6-12
				C150.5,194.8,145.1,191.8,139.9,193.3z"/>
			<path class="st13" d="M329.8,148c-16.9,57.5-62.6,105.8-125.2,124.1c-10.5,3.1-21,5.1-31.4,6.3c4.6-0.8,9.3-1.8,13.9-3.2
				c54.3-15.8,88.9-66.7,86.3-120.8l48.7-14.2C326.8,138.8,331.2,143.3,329.8,148L329.8,148z"/>
			<g>
				<circle class="st1" cx="293.7" cy="164" r="4.7"/>
				<circle class="st1" cx="239.5" cy="179.8" r="4.7"/>
				<circle class="st1" cx="185.3" cy="195.6" r="4.7"/>
				<circle class="st1" cx="131.1" cy="211.4" r="4.7"/>
				<circle class="st1" cx="76.9" cy="227.2" r="4.7"/>
			</g>
		</g>
		<g>
			
				<ellipse transform="matrix(0.3558 -0.9346 0.9346 0.3558 -55.8953 204.878)" class="st8" cx="120.7" cy="143" rx="11.2" ry="6.7"/>
			
				<ellipse transform="matrix(0.7948 -0.6069 0.6069 0.7948 -61.2606 126.4232)" class="st8" cx="156.3" cy="153.8" rx="11.2" ry="6.7"/>
		</g>
		<g>
			
				<ellipse transform="matrix(0.6676 -0.7445 0.7445 0.6676 -117.4113 111.801)" class="st5" cx="66.5" cy="187.4" rx="6.7" ry="11.2"/>
			<ellipse transform="matrix(0.9732 -0.23 0.23 0.9732 -39.5895 27.1189)" class="st8" cx="96.5" cy="183.3" rx="6.7" ry="11.2"/>
		</g>
		<g>
			<ellipse transform="matrix(0.315 -0.9491 0.9491 0.315 -6.5575 123.2346)" class="st8" cx="82.1" cy="66.2" rx="8.5" ry="5.1"/>
		</g>
		<g>
			<ellipse transform="matrix(0.617 -0.787 0.787 0.617 -42.6893 114.6878)" class="st8" cx="96.5" cy="101.2" rx="8.5" ry="5.1"/>
		</g>
		<g>
			
				<ellipse transform="matrix(8.395530e-02 -0.9965 0.9965 8.395530e-02 65.7246 214.9713)" class="st8" cx="149.8" cy="71.7" rx="5.1" ry="8.5"/>
		</g>
		<g>
			
				<ellipse transform="matrix(0.9995 -3.098512e-02 3.098512e-02 0.9995 -2.62 4.0473)" class="st8" cx="129.3" cy="86.6" rx="8.5" ry="5.1"/>
		</g>
		<g>
			<ellipse transform="matrix(0.9511 -0.309 0.309 0.9511 -12.0695 40.1122)" class="st8" cx="120.6" cy="58.2" rx="8.5" ry="5.1"/>
		</g>
		<g>
			
				<ellipse transform="matrix(0.103 -0.9947 0.9947 0.103 -78.2243 162.8526)" class="st5" cx="51.2" cy="124.8" rx="8.5" ry="5.1"/>
		</g>
	</g>
</g>
<g>
	<path d="M448.6,78.8v25c0,9.5,4.2,13.5,9.8,13.5c6.3,0,10.3-4.1,10.3-13.5v-25h5.5v24.6c0,13-6.8,18.3-16,18.3
		c-8.6,0-15.2-4.9-15.2-18V78.8H448.6z"/>
	<path d="M483.5,98.9c0-3.1-0.1-5.7-0.3-8.2h4.9l0.3,5h0.1c1.5-2.9,5-5.7,10-5.7c4.2,0,10.7,2.5,10.7,12.9V121h-5.5v-17.5
		c0-4.9-1.8-9-7-9c-3.6,0-6.5,2.6-7.4,5.6c-0.3,0.7-0.4,1.6-0.4,2.6V121h-5.5V98.9z"/>
	<path d="M539.8,119.9c-1.4,0.8-4.6,1.8-8.7,1.8c-9.1,0-15.1-6.2-15.1-15.5c0-9.3,6.4-16.1,16.3-16.1c3.3,0,6.1,0.8,7.6,1.6
		l-1.3,4.3c-1.3-0.8-3.4-1.4-6.4-1.4c-7,0-10.7,5.1-10.7,11.5c0,7,4.5,11.3,10.5,11.3c3.1,0,5.2-0.8,6.8-1.5L539.8,119.9z"/>
	<path d="M546.3,76.5h5.5V121h-5.5V76.5z"/>
	<path d="M564.1,106.8c0.1,7.5,4.9,10.5,10.4,10.5c3.9,0,6.3-0.7,8.4-1.6l0.9,3.9c-1.9,0.9-5.3,1.9-10.1,1.9
		c-9.3,0-14.9-6.1-14.9-15.3c0-9.1,5.4-16.3,14.2-16.3c9.9,0,12.5,8.7,12.5,14.3c0,1.1-0.1,2-0.2,2.6H564.1z M580.3,102.9
		c0.1-3.5-1.4-9-7.6-9c-5.6,0-8,5.1-8.5,9H580.3z"/>
	<path d="M605.9,79.3c2.8-0.6,6.7-0.9,10.5-0.9c5.8,0,9.6,1.1,12.2,3.4c2.1,1.9,3.3,4.8,3.3,8c0,5.6-3.5,9.3-8,10.8v0.2
		c3.3,1.1,5.2,4.1,6.2,8.5c1.4,5.9,2.4,10,3.3,11.6h-5.6c-0.7-1.2-1.6-4.8-2.8-10.1c-1.3-5.8-3.5-8-8.5-8.2h-5.1V121h-5.4V79.3z
		 M611.4,98.6h5.6c5.8,0,9.5-3.2,9.5-8c0-5.4-3.9-7.8-9.7-7.9c-2.6,0-4.5,0.3-5.4,0.5V98.6z"/>
	<path d="M667.1,105.6c0,11.2-7.8,16.1-15.1,16.1c-8.2,0-14.5-6-14.5-15.6c0-10.1,6.6-16.1,15-16.1C661.2,90,667.1,96.3,667.1,105.6
		z M643,105.9c0,6.6,3.8,11.6,9.2,11.6c5.3,0,9.2-4.9,9.2-11.8c0-5.1-2.6-11.6-9.1-11.6C645.9,94.1,643,100.1,643,105.9z"/>
	<path d="M700.2,90.7c-0.1,2.2-0.3,4.6-0.3,8.3v17.6c0,7-1.4,11.2-4.3,13.8c-2.9,2.8-7.2,3.6-11,3.6c-3.6,0-7.6-0.9-10.1-2.5
		l1.4-4.2c2,1.3,5.1,2.4,8.9,2.4c5.6,0,9.8-2.9,9.8-10.6v-3.4h-0.1c-1.7,2.8-4.9,5.1-9.6,5.1c-7.5,0-12.9-6.4-12.9-14.8
		c0-10.3,6.7-16.1,13.7-16.1c5.3,0,8.1,2.8,9.5,5.3h0.1l0.3-4.6H700.2z M694.5,102.6c0-0.9-0.1-1.8-0.3-2.5c-1-3.2-3.7-5.8-7.7-5.8
		c-5.3,0-9,4.4-9,11.5c0,5.9,3,10.9,9,10.9c3.4,0,6.5-2.1,7.6-5.6c0.3-0.9,0.4-2,0.4-2.9V102.6z"/>
	<path d="M712.1,106.8c0.1,7.5,4.9,10.5,10.4,10.5c3.9,0,6.3-0.7,8.4-1.6l0.9,3.9c-1.9,0.9-5.3,1.9-10.1,1.9
		c-9.3,0-14.9-6.1-14.9-15.3c0-9.1,5.4-16.3,14.2-16.3c9.9,0,12.5,8.7,12.5,14.3c0,1.1-0.1,2-0.2,2.6H712.1z M728.3,102.9
		c0.1-3.5-1.4-9-7.6-9c-5.6,0-8,5.1-8.5,9H728.3z"/>
	<path d="M740.4,100.1c0-3.6-0.1-6.6-0.3-9.5h4.8l0.2,5.9h0.3c1.4-4.1,4.7-6.6,8.4-6.6c0.6,0,1.1,0.1,1.6,0.2v5.2
		c-0.6-0.1-1.1-0.2-1.9-0.2c-3.9,0-6.6,2.9-7.4,7.1c-0.1,0.8-0.3,1.6-0.3,2.6V121h-5.4V100.1z"/>
	<path d="M769.7,78.1c-1.4,5.3-4.1,12-5.9,14.8l-3.5,0.4c1.4-3.7,3-10.2,3.7-14.7L769.7,78.1z"/>
	<path d="M770.5,115.4c1.6,1.1,4.5,2.2,7.3,2.2c4,0,5.9-2,5.9-4.5c0-2.6-1.6-4.1-5.6-5.6c-5.4-1.9-8-4.9-8-8.6
		c0-4.9,3.9-8.9,10.5-8.9c3.1,0,5.8,0.9,7.5,1.9l-1.4,4c-1.2-0.8-3.4-1.8-6.2-1.8c-3.3,0-5.1,1.9-5.1,4.1c0,2.5,1.8,3.6,5.8,5.1
		c5.3,2,8,4.6,8,9.1c0,5.3-4.1,9.1-11.3,9.1c-3.3,0-6.4-0.8-8.5-2.1L770.5,115.4z"/>
</g>
<g>
	<path d="M488.7,317.7l-46.2-182.2h24.9l21.6,92.2c5.4,22.7,10.3,45.4,13.5,63h0.5c3-18.1,8.7-39.7,14.9-63.3l24.3-91.9h24.6
		l22.2,92.5c5.1,21.6,10,43.3,12.7,62.5h0.5c3.8-20,8.9-40.3,14.6-63l24.1-91.9H665l-51.6,182.2h-24.6l-23-94.9
		c-5.7-23.3-9.5-41.1-11.9-59.5h-0.5c-3.2,18.1-7.3,36-14.1,59.5l-26,94.9H488.7z"/>
	<path d="M796.4,251.2c0,48.4-33.5,69.5-65.2,69.5c-35.4,0-62.7-26-62.7-67.3c0-43.8,28.7-69.5,64.9-69.5
		C771,183.9,796.4,211.2,796.4,251.2z M692.6,252.5c0,28.7,16.5,50.3,39.7,50.3c22.7,0,39.7-21.4,39.7-50.8
		c0-22.2-11.1-50.3-39.2-50.3C704.7,201.7,692.6,227.7,692.6,252.5z"/>
	<path d="M849.9,246.9h0.5c3.2-4.6,7.8-10.3,11.6-14.9l38.4-45.2h28.7l-50.6,53.8l57.6,77.1h-28.9L862.1,255l-12.2,13.5v49.2h-23.5
		v-192h23.5V246.9z"/>
	<path class="st4" d="M1031.4,317.7l-46.2-182.2h24.9l21.6,92.2c5.4,22.7,10.3,45.4,13.5,63h0.5c3-18.1,8.7-39.7,14.9-63.3
		l24.3-91.9h24.6l22.2,92.5c5.1,21.6,10,43.3,12.7,62.5h0.5c3.8-20,8.9-40.3,14.6-63l24.1-91.9h24.1L1156,317.7h-24.6l-23-94.9
		c-5.7-23.3-9.5-41.1-11.9-59.5h-0.5c-3.2,18.1-7.3,36-14.1,59.5l-26,94.9H1031.4z"/>
	<path class="st4" d="M1293.1,317.7l-1.9-16.5h-0.8c-7.3,10.3-21.4,19.5-40,19.5c-26.5,0-40-18.7-40-37.6
		c0-31.6,28.1-48.9,78.7-48.7v-2.7c0-10.8-3-30.3-29.7-30.3c-12.2,0-24.9,3.8-34.1,9.7l-5.4-15.7c10.8-7,26.5-11.6,43-11.6
		c40,0,49.8,27.3,49.8,53.5v48.9c0,11.4,0.5,22.4,2.2,31.4H1293.1z M1289.6,250.9c-26-0.5-55.4,4.1-55.4,29.5
		c0,15.4,10.3,22.7,22.4,22.7c17,0,27.8-10.8,31.6-21.9c0.8-2.4,1.4-5.1,1.4-7.6V250.9z"/>
	<path class="st4" d="M1357.4,186.8l28.7,77.3c3,8.7,6.2,18.9,8.4,26.8h0.5c2.4-7.8,5.1-17.8,8.4-27.3l26-76.8h25.1l-35.7,93.3
		c-17,44.9-28.7,67.9-44.9,81.9c-11.6,10.3-23.3,14.3-29.2,15.4l-5.9-20c5.9-1.9,13.8-5.7,20.8-11.6c6.5-5.1,14.6-14.3,20-26.5
		c1.1-2.4,1.9-4.3,1.9-5.7c0-1.4-0.5-3.2-1.6-6.2l-48.4-120.6H1357.4z"/>
</g>
</svg>
